<?xml version="1.0" standalone="no"?><!DOCTYPE svg PUBLIC "-//W3C//DTD SVG 1.1//EN" "http://www.w3.org/Graphics/SVG/1.1/DTD/svg11.dtd"><svg t="1630980097159" class="icon" viewBox="0 0 1024 1024" version="1.1" xmlns="http://www.w3.org/2000/svg" p-id="10689" width="32" height="32" xmlns:xlink="http://www.w3.org/1999/xlink"><defs><style type="text/css"></style></defs><path d="M304.384 310.8352m-169.472 0a169.472 169.472 0 1 0 338.944 0 169.472 169.472 0 1 0-338.944 0Z" fill="#fe6869" p-id="10690"></path><path d="M720.1792 310.8352m-169.472 0a169.472 169.472 0 1 0 338.944 0 169.472 169.472 0 1 0-338.944 0Z" fill="#fe6869" p-id="10691"></path><path d="M304.384 702.0544m-169.472 0a169.472 169.472 0 1 0 338.944 0 169.472 169.472 0 1 0-338.944 0Z" fill="#fe6869" p-id="10692"></path><path d="M720.1792 702.0544m-169.472 0a169.472 169.472 0 1 0 338.944 0 169.472 169.472 0 1 0-338.944 0Z" fill="#fe6869" p-id="10693"></path></svg>