<?xml version="1.0" standalone="no"?><!DOCTYPE svg PUBLIC "-//W3C//DTD SVG 1.1//EN" "http://www.w3.org/Graphics/SVG/1.1/DTD/svg11.dtd"><svg t="1630053998773" class="icon" viewBox="0 0 1024 1024" version="1.1" xmlns="http://www.w3.org/2000/svg" p-id="3500" width="32" height="32" xmlns:xlink="http://www.w3.org/1999/xlink"><defs><style type="text/css"></style></defs><path d="M328.533 482.133H211.2c-83.2 0-151.467-68.266-151.467-151.466V211.2C59.733 128 128 59.733 211.2 59.733h117.333C411.733 59.733 480 128 480 211.2v117.333c2.133 85.334-66.133 153.6-151.467 153.6zM211.2 123.733c-49.067 0-87.467 40.534-87.467 87.467v117.333C123.733 377.6 164.267 416 211.2 416h117.333C377.6 416 416 375.467 416 328.533V211.2c0-49.067-40.533-87.467-87.467-87.467H211.2z m599.467 358.4H693.333c-83.2 0-151.466-68.266-151.466-151.466V211.2c0-83.2 68.266-151.467 151.466-151.467h117.334c83.2 0 151.466 68.267 151.466 151.467v117.333c0 85.334-68.266 153.6-151.466 153.6z m-117.334-358.4c-49.066 0-87.466 40.534-87.466 87.467v117.333C605.867 377.6 646.4 416 693.333 416h117.334c49.066 0 87.466-40.533 87.466-87.467V211.2c0-49.067-40.533-87.467-87.466-87.467H693.333z m-364.8 840.534H211.2C128 964.267 59.733 896 59.733 812.8V695.467C59.733 612.267 128 544 211.2 544h117.333C411.733 544 480 612.267 480 695.467V812.8c2.133 83.2-66.133 151.467-151.467 151.467zM211.2 605.867c-49.067 0-87.467 40.533-87.467 87.466v117.334c0 49.066 40.534 87.466 87.467 87.466h117.333C377.6 898.133 416 857.6 416 810.667V693.333c0-49.066-40.533-87.466-87.467-87.466H211.2z" fill="#543E3E" p-id="3501"></path><path d="M906.667 654.933H603.733c-17.066 0-32-14.933-32-32s14.934-32 32-32H908.8c17.067 0 32 14.934 32 32s-17.067 32-34.133 32z m-51.2 142.934H603.733c-17.066 0-32-14.934-32-32s14.934-32 32-32h251.734c17.066 0 32 14.933 32 32s-14.934 32-32 32zM729.6 942.933H603.733c-17.066 0-32-14.933-32-32s14.934-32 32-32H729.6c17.067 0 32 14.934 32 32s-14.933 32-32 32z" fill="#FFBB12" p-id="3502"></path></svg>