<?xml version="1.0" standalone="no"?><!DOCTYPE svg PUBLIC "-//W3C//DTD SVG 1.1//EN" "http://www.w3.org/Graphics/SVG/1.1/DTD/svg11.dtd"><svg t="1630053893520" class="icon" viewBox="0 0 1024 1024" version="1.1" xmlns="http://www.w3.org/2000/svg" p-id="2316" xmlns:xlink="http://www.w3.org/1999/xlink" width="200" height="200"><defs><style type="text/css"></style></defs><path d="M597.39648 942.08a26.58816 26.58816 0 0 1-26.5472-26.624v-254.30528a4.49536 4.49536 0 0 0-4.68992-4.26496h-97.28a4.49536 4.49536 0 0 0-4.68992 4.26496V915.456a26.54208 26.54208 0 1 1-53.08928 0v-254.30528a57.71776 57.71776 0 0 1 57.77408-57.53856h97.28a57.72288 57.72288 0 0 1 57.7792 57.53856V915.456a26.58816 26.58816 0 0 1-26.53696 26.624z" fill="#FD9A16" p-id="2317"></path><path d="M780.4928 942.08l-187.74528-0.45056a26.69056 26.69056 0 0 1 0.06144-53.376h0.08704l187.67872 0.45568a4.2496 4.2496 0 0 0 4.17792-4.27008v-302.4128a42.0864 42.0864 0 0 1 41.91232-42.1632h78.40256a4.28544 4.28544 0 0 0 3.33312-6.93248l-390.71232-391.168a4.22912 4.22912 0 0 0-6.20544 0l-0.67584 0.70144-390.0416 390.47168a4.28544 4.28544 0 0 0 3.33312 6.93248h65.7408a42.0864 42.0864 0 0 1 41.91232 42.1632v302.41792a4.26496 4.26496 0 0 0 4.24448 4.27008H433.152a26.68544 26.68544 0 0 1 0 53.36064H235.97568A57.53344 57.53344 0 0 1 178.688 884.44416v-291.21024H124.07808a56.52992 56.52992 0 0 1-52.55168-34.67776 57.1648 57.1648 0 0 1 10.6752-62.3104l0.68096-0.70144L473.088 104.91392a57.04704 57.04704 0 0 1 82.944 0l390.87616 391.33184a57.1648 57.1648 0 0 1 10.68032 62.3104 56.53504 56.53504 0 0 1-52.55168 34.67776H837.7856v291.21024A57.53344 57.53344 0 0 1 780.4928 942.08z" fill="#2966C1" p-id="2318"></path></svg>