<?xml version="1.0" standalone="no"?><!DOCTYPE svg PUBLIC "-//W3C//DTD SVG 1.1//EN" "http://www.w3.org/Graphics/SVG/1.1/DTD/svg11.dtd"><svg t="1630979953740" class="icon" viewBox="0 0 1536 1024" version="1.1" xmlns="http://www.w3.org/2000/svg" p-id="2980" width="48" height="32" xmlns:xlink="http://www.w3.org/1999/xlink"><defs><style type="text/css"></style></defs><path d="M0 0v1024h1536V0H0z" fill="#FFFFFF" p-id="2981"></path><path d="M476.16 481.28v220.16c0 29.53728-7.5264 71.22432 9.69728 96.9984C515.47136 842.76736 609.1008 824.32 655.36 824.32c18.03264 0 48.79872 5.69856 60.52352-11.86816C726.33344 796.78976 721.92 770.47808 721.92 752.64v-143.36c17.44896 0 44.60032-4.8896 59.81184 5.26336 15.6416 10.43456 11.86304 34.92864 11.86816 51.05664l0.00512 107.52c0.07168 13.80864-1.64864 32.19968 8.91392 42.99264C821.26848 835.26144 881.29536 824.32 906.24 824.32c35.64032 0 88.28416 9.86112 116.33152-17.37728 24.18176-23.48544 15.19104-60.22656 15.2832-90.14272 0.2304-76.76416 1.50528-153.5744 1.50528-230.4 16.82432 16.82432 34.47296 40.67328 56.31488 50.97984 10.37824 4.89472 27.05408 5.64224 32.47616-6.91712 5.30432-12.29824-5.8368-24.46336-13.29664-32.8192-20.6848-23.168-43.17696-44.672-64.36352-67.36384-55.61856-59.56096-113.1008-118.41536-166.83008-179.59936-32.05632-36.5056-68.096-82.58048-120.7808-86.33856-39.97184-2.85184-70.58432 24.3712-97.28 50.71872-48.91648 48.27136-94.73024 100.08064-142.10048 149.92384-35.2256 37.0688-72.66816 72.41216-105.90208 111.17568-10.752 12.53376-32.08192 27.79648-32.08192 45.98272 0 18.59584 20.6848 21.6832 34.3296 15.23712C444.0576 525.93152 457.50784 499.14368 476.16 481.28z" fill="#FE6869" p-id="2982"></path><path d="M711.68 174.08l5.12 5.12-5.12-5.12z" fill="#FEA9AA" p-id="2983"></path><path d="M802.13504 175.78496c-2.2784 2.2784 3.12832 1.9968 3.40992 1.71008 2.2784-2.2784-3.12832-1.9968-3.40992-1.71008z" fill="#FEE0E0" p-id="2984"></path><path d="M699.73504 180.90496c-2.2784 2.2784 3.12832 1.9968 3.40992 1.71008 2.2784-2.2784-3.12832-1.9968-3.40992-1.71008z" fill="#FFD1D1" p-id="2985"></path><path d="M691.2 184.32l5.12 5.12-5.12-5.12z" fill="#FFBABB" p-id="2986"></path><path d="M680.96 194.56l5.12 5.12-5.12-5.12z" fill="#FFBDBD" p-id="2987"></path><path d="M829.44 194.56l5.12 5.12-5.12-5.12z" fill="#FDC2BD" p-id="2988"></path><path d="M675.84 199.68l5.12 5.12-5.12-5.12z" fill="#FFC3C3" p-id="2989"></path><path d="M834.56 199.68l5.12 5.12-5.12-5.12z" fill="#FDC9C5" p-id="2990"></path><path d="M670.72 204.8l5.12 5.12-5.12-5.12z" fill="#FEB8B8" p-id="2991"></path><path d="M650.24 225.28l5.12 5.12-5.12-5.12z" fill="#FFBABB" p-id="2992"></path><path d="M645.12 230.4l5.12 5.12-5.12-5.12m-5.12 5.12l5.12 5.12-5.12-5.12z" fill="#FFBDBD" p-id="2993"></path><path d="M634.88 240.64l5.12 5.12-5.12-5.12z" fill="#FFBABB" p-id="2994"></path><path d="M629.76 245.76l5.12 5.12-5.12-5.12z" fill="#FFBDBD" p-id="2995"></path><path d="M624.64 250.88l5.12 5.12-5.12-5.12z" fill="#FFC1C1" p-id="2996"></path><path d="M619.52 256l5.12 5.12-5.12-5.12z" fill="#FFBDBD" p-id="2997"></path><path d="M885.76 256l5.12 5.12-5.12-5.12z" fill="#FCB7B1" p-id="2998"></path><path d="M890.88 261.12l5.12 5.12-5.12-5.12z" fill="#FEADAD" p-id="2999"></path><path d="M609.28 266.24v10.24c8.3712-2.7904 7.4496-1.8688 10.24-10.24h-10.24z" fill="#FE9493" p-id="3000"></path><path d="M896 266.24l5.12 5.12-5.12-5.12z" fill="#FCB7B1" p-id="3001"></path><path d="M604.16 276.48l5.12 5.12-5.12-5.12z" fill="#FEA6A6" p-id="3002"></path><path d="M599.04 281.6l5.12 5.12-5.12-5.12z" fill="#FDADAB" p-id="3003"></path><path d="M918.18496 285.01504c-0.2816 0.2816-0.56832 5.6832 1.71008 3.40992 0.2816-0.2816 0.56832-5.6832-1.71008-3.40992z" fill="#FBD1CD" p-id="3004"></path><path d="M593.92 286.72l5.12 5.12-5.12-5.12z" fill="#FEB5B5" p-id="3005"></path><path d="M588.8 291.84l5.12 5.12-5.12-5.12z" fill="#FFB3B3" p-id="3006"></path><path d="M583.68 296.96l5.12 5.12-5.12-5.12z" fill="#FEB1B1" p-id="3007"></path><path d="M578.56 302.08l5.12 5.12-5.12-5.12z" fill="#FFB3B3" p-id="3008"></path><path d="M573.44 307.2l5.12 5.12-5.12-5.12z" fill="#FEB1B1" p-id="3009"></path><path d="M568.32 312.32l5.12 5.12-5.12-5.12m-5.12 5.12l5.12 5.12-5.12-5.12m-5.12 5.12l5.12 5.12-5.12-5.12m-5.12 5.12l5.12 5.12-5.12-5.12z" fill="#FEADAD" p-id="3010"></path><path d="M547.84 332.8l5.12 5.12-5.12-5.12z" fill="#FEA9AA" p-id="3011"></path><path d="M964.26496 336.21504c-0.2816 0.2816-0.56832 5.6832 1.71008 3.40992 0.2816-0.2816 0.56832-5.6832-1.71008-3.40992z" fill="#FAAEA9" p-id="3012"></path><path d="M542.72 337.92l5.12 5.12-5.12-5.12z" fill="#FFB3B3" p-id="3013"></path><path d="M539.30496 346.45504c-0.2816 0.2816-0.56832 5.6832 1.71008 3.40992 0.2816-0.2816 0.56832-5.6832-1.71008-3.40992z" fill="#FC928B" p-id="3014"></path><path d="M532.48 353.28l5.12 5.12-5.12-5.12z" fill="#FEA9AA" p-id="3015"></path><path d="M983.04 358.4l5.12 5.12-5.12-5.12z" fill="#FBC6C1" p-id="3016"></path><path d="M517.12 363.52l5.12 5.12-5.12-5.12z" fill="#FFB3B3" p-id="3017"></path><path d="M512 373.76l5.12 5.12-5.12-5.12z" fill="#FEA6A6" p-id="3018"></path><path d="M998.4 373.76l5.12 5.12-5.12-5.12z" fill="#FFC8C8" p-id="3019"></path><path d="M506.88 378.88l5.12 5.12-5.12-5.12m-5.12 5.12l5.12 5.12-5.12-5.12z" fill="#FEA0A0" p-id="3020"></path><path d="M1008.64 384l5.12 5.12-5.12-5.12z" fill="#FFC6C5" p-id="3021"></path><path d="M496.64 389.12l5.12 5.12-5.12-5.12z" fill="#FEA0A0" p-id="3022"></path><path d="M1013.76 389.12l5.12 5.12-5.12-5.12z" fill="#FFC6C5" p-id="3023"></path><path d="M491.52 394.24l5.12 5.12-5.12-5.12z" fill="#FE9D9E" p-id="3024"></path><path d="M486.4 399.36l5.12 5.12-5.12-5.12z" fill="#FEA0A0" p-id="3025"></path><path d="M1025.70496 402.77504c-0.2816 0.2816-0.56832 5.6832 1.71008 3.40992 0.2816-0.2816 0.56832-5.6832-1.71008-3.40992z" fill="#F8A8A1" p-id="3026"></path><path d="M481.28 404.48l5.12 5.12-5.12-5.12z" fill="#FEA0A0" p-id="3027"></path><path d="M476.16 409.6l5.12 5.12-5.12-5.12z" fill="#FEA6A6" p-id="3028"></path><path d="M471.04 414.72l5.12 5.12-5.12-5.12z" fill="#FEB8B8" p-id="3029"></path><path d="M467.62496 423.25504c-0.2816 0.2816-0.5632 5.6832 1.71008 3.40992 0.2816-0.2816 0.5632-5.6832-1.71008-3.40992z" fill="#FC928B" p-id="3030"></path><path d="M1039.36 419.84l5.12 5.12-5.12-5.12m5.12 5.12l5.12 5.12-5.12-5.12z" fill="#FBBBB6" p-id="3031"></path><path d="M1049.6 430.08l5.12 5.12-5.12-5.12z" fill="#FEBFB9" p-id="3032"></path><path d="M450.56 435.2l5.12 5.12-5.12-5.12z" fill="#FEA6A6" p-id="3033"></path><path d="M1054.72 435.2l5.12 5.12-5.12-5.12z" fill="#FFC3C3" p-id="3034"></path><path d="M445.44 440.32l5.12 5.12-5.12-5.12z" fill="#FEA6A6" p-id="3035"></path><path d="M1059.84 440.32l5.12 5.12-5.12-5.12z" fill="#FFC6C5" p-id="3036"></path><path d="M1064.96 445.44l5.12 5.12-5.12-5.12z" fill="#FFBDBD" p-id="3037"></path><path d="M1070.08 450.56l5.12 5.12-5.12-5.12z" fill="#FEB8B8" p-id="3038"></path><path d="M1075.2 455.68l5.12 5.12-5.12-5.12z" fill="#FFBDBD" p-id="3039"></path><path d="M1080.32 460.8l5.12 5.12-5.12-5.12z" fill="#FFC1C1" p-id="3040"></path><path d="M1085.44 465.92l5.12 5.12-5.12-5.12z" fill="#FFC3C3" p-id="3041"></path><path d="M1090.56 471.04l5.12 5.12-5.12-5.12z" fill="#FFC8C8" p-id="3042"></path><path d="M414.72 476.16l5.12 5.12-5.12-5.12z" fill="#FE9D9E" p-id="3043"></path><path d="M409.6 481.28l5.12 5.12-5.12-5.12z" fill="#FEA0A0" p-id="3044"></path><path d="M469.33504 482.98496c-2.2784 2.2784 3.1232 1.9968 3.40992 1.71008 2.2784-2.2784-3.1232-1.9968-3.40992-1.71008z" fill="#FF888A" p-id="3045"></path><path d="M404.48 486.4l5.12 5.12-5.12-5.12z" fill="#FEA9AA" p-id="3046"></path><path d="M465.92 486.4c8.6784 36.4544 5.12 75.36128 5.12 112.64v179.2c9.05728-21.5808 5.12-48.45568 5.12-71.68v-148.48c0-21.71392 7.16288-56.4736-10.24-71.68z" fill="#FAAAA5" p-id="3047"></path><path d="M1039.36 486.4v184.32c15.43168-36.77184 4.95104-93.35808 5.12512-133.12 0.0768-17.90976 3.8912-35.60448-5.12512-51.2z" fill="#FFE9E9" p-id="3048"></path><path d="M1100.8 486.4l5.12 5.12-5.12-5.12z" fill="#FAACA6" p-id="3049"></path><path d="M399.36 491.52l5.12 5.12-5.12-5.12z" fill="#FEA6A6" p-id="3050"></path><path d="M460.8 491.52l5.12 5.12-5.12-5.12z" fill="#FECBCB" p-id="3051"></path><path d="M1111.04 491.52l5.12 5.12-5.12-5.12z" fill="#FFC3C3" p-id="3052"></path><path d="M394.24 496.64l5.12 5.12-5.12-5.12z" fill="#FEB1B1" p-id="3053"></path><path d="M1049.6 496.64l5.12 5.12-5.12-5.12m66.56 0l5.12 5.12-5.12-5.12z" fill="#FFBABB" p-id="3054"></path><path d="M389.12 501.76l5.12 5.12-5.12-5.12z" fill="#FEA9AA" p-id="3055"></path><path d="M1054.72 501.76l5.12 5.12-5.12-5.12z" fill="#FFBABB" p-id="3056"></path><path d="M1059.84 506.88l5.12 5.12-5.12-5.12z" fill="#FFBDBD" p-id="3057"></path><path d="M1121.28 506.88l5.12 5.12-5.12-5.12z" fill="#FDADAB" p-id="3058"></path><path d="M1070.08 517.12l5.12 5.12-5.12-5.12z" fill="#FBC6C1" p-id="3059"></path><path d="M1075.2 522.24l5.12 5.12-5.12-5.12z" fill="#FECBCB" p-id="3060"></path><path d="M1080.32 527.36l5.12 5.12-5.12-5.12m5.12 5.12l5.12 5.12-5.12-5.12z" fill="#FEB8B8" p-id="3061"></path><path d="M1090.56 537.6l5.12 5.12-5.12-5.12z" fill="#FEB5B5" p-id="3062"></path><path d="M1121.28 537.6l5.12 5.12-5.12-5.12z" fill="#FFC3C3" p-id="3063"></path><path d="M399.36 542.72c6.38976 3.5072 7.92576 3.83488 15.36 5.12-6.38976-3.5072-7.92576-3.83488-15.36-5.12z" fill="#FE9797" p-id="3064"></path><path d="M1095.68 542.72c7.71072 3.49696 11.8528 4.22912 20.48 5.12-7.71072-3.49696-11.8528-4.22912-20.48-5.12z" fill="#FE9494" p-id="3065"></path><path d="M721.92 609.28c20.27008 8.50432 44.73344 5.12 66.56 5.12-20.27008-8.50432-44.73344-5.12-66.56-5.12z" fill="#FEA6A6" p-id="3066"></path><path d="M721.92 614.4v194.56c7.37792-17.5872 5.12-37.36576 5.12-56.32 0-40.99584 10.7776-100.352-5.12-138.24z" fill="#FFC8C8" p-id="3067"></path><path d="M788.48 614.4v194.56c7.37792-17.5872 5.12-37.36576 5.12-56.32 0-40.99584 10.7776-100.352-5.12-138.24z" fill="#FE9494" p-id="3068"></path><path d="M1034.24 670.72v15.36c3.56352-7.95648 3.56352-7.40352 0-15.36z" fill="#F8A29B" p-id="3069"></path><path d="M1039.36 686.08v25.6c4.2496-10.39872 4.2496-15.20128 0-25.6z" fill="#FFE9E9" p-id="3070"></path><path d="M1034.24 711.68v15.36c3.56352-7.95648 3.56352-7.40352 0-15.36z" fill="#F8A29B" p-id="3071"></path><path d="M1039.36 727.04v56.32c7.32672-17.4592 7.32672-38.8608 0-56.32z" fill="#FFE9E9" p-id="3072"></path><path d="M472.74496 781.65504c-0.2816 0.2816-0.5632 5.68832 1.71008 3.40992 0.2816-0.2816 0.5632-5.68832-1.71008-3.40992z" fill="#FDC9C5" p-id="3073"></path><path d="M1034.24 783.36v15.36c3.56352-7.95648 3.56352-7.40352 0-15.36z" fill="#FEDDDD" p-id="3074"></path><path d="M477.86496 791.89504c-0.2816 0.2816-0.5632 5.68832 1.71008 3.40992 0.2816-0.2816 0.5632-5.68832-1.71008-3.40992z" fill="#FDCDCB" p-id="3075"></path><path d="M482.98496 797.01504c-0.2816 0.2816-0.5632 5.68832 1.71008 3.40992 0.2816-0.2816 0.5632-5.68832-1.71008-3.40992z" fill="#FE9D9E" p-id="3076"></path><path d="M486.4 803.84l5.12 5.12-5.12-5.12z" fill="#FBBBB6" p-id="3077"></path><path d="M716.8 808.96l5.12 5.12-5.12-5.12z" fill="#FE9D9E" p-id="3078"></path><path d="M795.30496 812.37504c-0.2816 0.2816-0.56832 5.68832 1.71008 3.40992 0.2816-0.2816 0.56832-5.68832-1.71008-3.40992z" fill="#FD8585" p-id="3079"></path><path d="M797.01504 820.90496c-2.2784 2.2784 3.12832 1.99168 3.40992 1.71008 2.2784-2.2784-3.12832-1.99168-3.40992-1.71008z" fill="#FEDDDD" p-id="3080"></path></svg>