<?xml version="1.0" standalone="no"?><!DOCTYPE svg PUBLIC "-//W3C//DTD SVG 1.1//EN" "http://www.w3.org/Graphics/SVG/1.1/DTD/svg11.dtd"><svg t="1630054089716" class="icon" viewBox="0 0 1024 1024" version="1.1" xmlns="http://www.w3.org/2000/svg" p-id="8794" width="32" height="32" xmlns:xlink="http://www.w3.org/1999/xlink"><defs><style type="text/css"></style></defs><path d="M857.65632 936.96H176.58368A28.04736 28.04736 0 0 1 148.48 908.96896v-224.90112a27.94496 27.94496 0 0 1 9.9328-21.3504l164.1984-138.5984a258.944 258.944 0 1 1 385.14176-3.51232l168.0896 142.12608a27.9552 27.9552 0 0 1 9.91744 21.33504v224.90112a28.04736 28.04736 0 0 1-28.10368 27.99104zM204.68736 880.98304h624.86528v-183.9616L648.192 543.6672a27.90912 27.90912 0 0 1-0.42496-42.30656 202.752 202.752 0 1 0-265.11872 2.75456 27.91424 27.91424 0 0 1 0 42.70592L204.68736 697.0368v183.94624z" fill="#3B4552" p-id="8795"></path><path d="M544.73216 763.10016H488.14592v-200.1152h56.58624v200.1152z" fill="#FF960B" p-id="8796"></path></svg>